<svg viewBox="0 0 343 310" xmlns:xlink="http://www.w3.org/1999/xlink" version="1.1" xmlns="http://www.w3.org/2000/svg" style="max-height: 500px" width="343" height="310"><g transform="matrix(1,0,0,1,-0.6060586313737417,-0.10738210079063037)"><svg xmlns:xlink="http://www.w3.org/1999/xlink" xmlns="http://www.w3.org/2000/svg" width="1000" height="310" preserveAspectRatio="xMidYMid meet" data-background-color="#ffffff" viewBox="0 0 396 123"><g transform="matrix(1,0,0,1,0.24000078197605035,0.042606446442732704)" id="tight-bounds"><svg width="395.52" height="122.9147871071145" viewBox="0 0 395.52 122.9147871071145"><g><svg width="395.52" height="122.9147871071145" viewBox="0 0 643.0938420499818 199.8527070324379"><g><rect data-palette-color="#233565" id="o-0" rx="1%" data-fill-palette-color="primary" class="rect-o-0" fill-opacity="1" stroke="transparent" stroke-width="0" opacity="1" fill="#233565" y="0" x="224.2232258893302" height="199.8527070324379" width="6.45436712978939"/></g><g transform="matrix(1,0,0,1,247.57384204998186,0.497146037394117)"><svg width="395.52" height="198.85841495764967" viewBox="0 0 395.52 198.85841495764967"><g id="textblocktransform"><svg id="textblock" width="395.52" height="198.85841495764967" viewBox="0 0 395.52 198.85841495764967"><g><svg width="395.52" height="155.00508872781802" viewBox="0 0 395.52 155.00508872781802"><g transform="matrix(1,0,0,1,0,0)"><svg data-palette-color="#233565" height="155.00508872781802" viewBox="0.7500009536743164 -35.60000228881836 200.75 75.4000015258789" width="395.52"><svg/><svg/><g id="text-0" data-fill-palette-color="primary" class="wordmark-text-0"><path opacity="1" data-fill-palette-color="primary" style="mix-blend-mode: normal" text-anchor="none" font-size="none" font-weight="none" font-family="none" stroke-dashoffset="0" stroke-dasharray="" stroke-miterlimit="10" stroke-linejoin="miter" stroke-linecap="butt" stroke-width="1" stroke="none" fill-rule="nonzero" fill="#233565" d="M24.2 0h-3.15c-2.133 0-4.007-0.477-5.62-1.43-1.62-0.947-2.887-2.22-3.8-3.82-0.92-1.6-1.38-3.383-1.38-5.35v0-17.4h-9.5v-7h27.35v7h-9.45v18.15c0 0.767 0.267 1.433 0.8 2 0.533 0.567 1.2 0.85 2 0.85v0h2.75zM35.6 0h-8.75l11.35-30.95c0.567-1.533 1.5-2.693 2.8-3.48 1.3-0.78 2.767-1.17 4.4-1.17v0c1.633 0 3.1 0.373 4.4 1.12 1.3 0.753 2.233 1.913 2.8 3.48v0l11.4 31h-9.05l-2.2-6.75h-14.85zM44.8-27.65l-4.75 13.95h10.55l-4.45-13.95c-0.067-0.2-0.157-0.343-0.27-0.43-0.12-0.08-0.263-0.12-0.43-0.12v0c-0.167 0-0.307 0.05-0.42 0.15-0.12 0.1-0.197 0.233-0.23 0.4zM86.45 0h-9.75c-2.167 0-4.067-0.483-5.7-1.45-1.633-0.967-2.9-2.25-3.8-3.85-0.9-1.6-1.35-3.367-1.35-5.3v0-24.4h8.4v25c0 0.8 0.283 1.5 0.85 2.1 0.567 0.6 1.267 0.9 2.1 0.9v0h9.25zM90.4 0h-8.75l11.35-30.95c0.567-1.533 1.5-2.693 2.8-3.48 1.3-0.78 2.767-1.17 4.4-1.17v0c1.633 0 3.1 0.373 4.4 1.12 1.3 0.753 2.233 1.913 2.8 3.48v0l11.4 31h-9.05l-2.2-6.75h-14.85zM99.6-27.65l-4.75 13.95h10.55l-4.45-13.95c-0.067-0.2-0.157-0.343-0.27-0.43-0.12-0.08-0.263-0.12-0.43-0.12v0c-0.167 0-0.307 0.05-0.42 0.15-0.12 0.1-0.197 0.233-0.23 0.4zM145.75 0.6v0c-2.1 0-3.983-0.46-5.65-1.38-1.667-0.913-2.983-2.187-3.95-3.82-0.967-1.633-1.45-3.483-1.45-5.55v0-15.3c0-0.533-0.133-1.017-0.4-1.45-0.267-0.433-0.617-0.783-1.05-1.05-0.433-0.267-0.917-0.4-1.45-0.4v0c-0.533 0-1.017 0.133-1.45 0.4-0.433 0.267-0.773 0.617-1.02 1.05-0.253 0.433-0.38 0.917-0.38 1.45v0 25.45h-8.2v-24.85c0-2.1 0.477-3.95 1.43-5.55 0.947-1.6 2.263-2.867 3.95-3.8 1.68-0.933 3.57-1.4 5.67-1.4v0c2.133 0 4.033 0.467 5.7 1.4 1.667 0.933 2.983 2.2 3.95 3.8 0.967 1.6 1.45 3.45 1.45 5.55v0 15.3c0 0.533 0.133 1.023 0.4 1.47 0.267 0.453 0.61 0.803 1.03 1.05 0.413 0.253 0.87 0.38 1.37 0.38v0c0.533 0 1.027-0.127 1.48-0.38 0.447-0.247 0.803-0.597 1.07-1.05 0.267-0.447 0.4-0.937 0.4-1.47v0-25.45h8.15v24.85c0 2.067-0.483 3.917-1.45 5.55-0.967 1.633-2.283 2.907-3.95 3.82-1.667 0.92-3.55 1.38-5.65 1.38zM183.75 0h-3.15c-2.133 0-4.007-0.477-5.62-1.43-1.62-0.947-2.887-2.22-3.8-3.82-0.92-1.6-1.38-3.383-1.38-5.35v0-17.4h-9.5v-7h27.35v7h-9.45v18.15c0 0.767 0.267 1.433 0.8 2 0.533 0.567 1.2 0.85 2 0.85v0h2.75z" xmlns="http://www.w3.org/2000/svg"/><path opacity="1" data-fill-palette-color="primary" style="mix-blend-mode: normal" text-anchor="none" font-size="none" font-weight="none" font-family="none" stroke-dashoffset="0" stroke-dasharray="" stroke-miterlimit="10" stroke-linejoin="miter" stroke-linecap="butt" stroke-width="1" stroke="none" fill-rule="nonzero" fill="#233565" d="M25.45 39.2h-5.4c-2.867-0.033-5.45-0.5-7.75-1.4-2.3-0.9-4.25-2.133-5.85-3.7-1.6-1.567-2.833-3.41-3.7-5.53-0.867-2.113-1.3-4.403-1.3-6.87v0c0-2.467 0.433-4.76 1.3-6.88 0.867-2.113 2.11-3.953 3.73-5.52 1.613-1.567 3.563-2.8 5.85-3.7 2.28-0.9 4.853-1.367 7.72-1.4v0h5.4v7h-5.2c-1.567 0.033-2.99 0.317-4.27 0.85-1.287 0.533-2.387 1.267-3.3 2.2-0.92 0.933-1.62 2.033-2.1 3.3-0.487 1.267-0.73 2.65-0.73 4.15v0c0 1.5 0.243 2.883 0.73 4.15 0.48 1.267 1.18 2.367 2.1 3.3 0.913 0.933 2.013 1.667 3.3 2.2 1.28 0.533 2.703 0.817 4.27 0.85v0h5.2zM44.95 39.8v0c-2.9 0-5.473-0.583-7.72-1.75-2.253-1.167-4.013-2.833-5.28-5-1.267-2.167-1.9-4.75-1.9-7.75v0-21.1h8.3v21.55c0 1.3 0.267 2.473 0.8 3.52 0.533 1.053 1.3 1.887 2.3 2.5 1 0.62 2.167 0.93 3.5 0.93v0c1.367 0 2.533-0.31 3.5-0.93 0.967-0.613 1.727-1.447 2.28-2.5 0.547-1.047 0.82-2.22 0.82-3.52v0-21.55h8.3v21.1c0 3-0.64 5.583-1.92 7.75-1.287 2.167-3.047 3.833-5.28 5-2.233 1.167-4.8 1.75-7.7 1.75zM86.65 39.2h-20.9v-35h20.3c1.733 0 3.31 0.383 4.73 1.15 1.413 0.767 2.547 1.833 3.4 3.2 0.847 1.367 1.27 2.983 1.27 4.85v0c0 1.1-0.207 2.15-0.62 3.15-0.42 1-1.003 1.883-1.75 2.65-0.753 0.767-1.613 1.383-2.58 1.85v0c1.133 0.467 2.143 1.133 3.03 2 0.88 0.867 1.58 1.867 2.1 3 0.513 1.133 0.77 2.35 0.77 3.65v0c0 1.9-0.44 3.567-1.32 5-0.887 1.433-2.063 2.54-3.53 3.32-1.467 0.787-3.1 1.18-4.9 1.18zM74.15 24.85v7.4h10.3c0.7 0 1.327-0.167 1.88-0.5 0.547-0.333 0.987-0.783 1.32-1.35 0.333-0.567 0.5-1.183 0.5-1.85v0c0-0.7-0.167-1.327-0.5-1.88-0.333-0.547-0.773-0.987-1.32-1.32-0.553-0.333-1.18-0.5-1.88-0.5v0zM74.15 11.2v6.95h9.45c0.667 0 1.26-0.16 1.78-0.48 0.513-0.313 0.92-0.73 1.22-1.25 0.3-0.513 0.45-1.087 0.45-1.72v0c0-0.667-0.15-1.26-0.45-1.78-0.3-0.513-0.707-0.93-1.22-1.25-0.52-0.313-1.113-0.47-1.78-0.47v0zM120.9 39.2h-20.45v-7h6.05v-21h-6.05v-7h20.45v7h-6.05v21h6.05zM148.6 39.2h-5.4c-2.867-0.033-5.45-0.5-7.75-1.4-2.3-0.9-4.25-2.133-5.85-3.7-1.6-1.567-2.833-3.41-3.7-5.53-0.867-2.113-1.3-4.403-1.3-6.87v0c0-2.467 0.433-4.76 1.3-6.88 0.867-2.113 2.11-3.953 3.73-5.52 1.613-1.567 3.56-2.8 5.84-3.7 2.287-0.9 4.863-1.367 7.73-1.4v0h5.4v7h-5.2c-1.567 0.033-2.99 0.317-4.27 0.85-1.287 0.533-2.387 1.267-3.3 2.2-0.92 0.933-1.623 2.033-2.11 3.3-0.48 1.267-0.72 2.65-0.72 4.15v0c0 1.5 0.24 2.883 0.72 4.15 0.487 1.267 1.19 2.367 2.11 3.3 0.913 0.933 2.013 1.667 3.3 2.2 1.28 0.533 2.703 0.817 4.27 0.85v0h5.2zM173.5 39.2h-9.75c-2.167 0-4.067-0.483-5.7-1.45-1.633-0.967-2.9-2.25-3.8-3.85-0.9-1.6-1.35-3.367-1.35-5.3v0-24.4h8.4v25c0 0.8 0.283 1.5 0.85 2.1 0.567 0.6 1.267 0.9 2.1 0.9v0h9.25zM201.5 39.2h-14.65c-1.967 0-3.75-0.46-5.35-1.38-1.6-0.913-2.873-2.147-3.82-3.7-0.953-1.547-1.43-3.303-1.43-5.27v0c0-1.467 0.327-2.843 0.98-4.13 0.647-1.28 1.52-2.387 2.62-3.32v0c-1.067-0.9-1.907-1.967-2.52-3.2-0.62-1.233-0.93-2.533-0.93-3.9v0c0-1.933 0.467-3.66 1.4-5.18 0.933-1.513 2.183-2.713 3.75-3.6 1.567-0.88 3.3-1.32 5.2-1.32v0h14.75v7.05l-13.45-0.05c-0.633 0-1.217 0.15-1.75 0.45-0.533 0.3-0.957 0.7-1.27 1.2-0.32 0.5-0.48 1.083-0.48 1.75v0c0 0.633 0.16 1.207 0.48 1.72 0.313 0.52 0.737 0.92 1.27 1.2 0.533 0.287 1.117 0.43 1.75 0.43v0h11.75v7h-11.5c-0.7 0-1.333 0.167-1.9 0.5-0.567 0.333-1.017 0.767-1.35 1.3-0.333 0.533-0.5 1.15-0.5 1.85v0c0 0.667 0.167 1.273 0.5 1.82 0.333 0.553 0.783 0.98 1.35 1.28 0.567 0.3 1.2 0.45 1.9 0.45v0h13.2z" xmlns="http://www.w3.org/2000/svg"/></g></svg></g></svg></g><g transform="matrix(1,0,0,1,0,171.9013377586803)"><svg width="232.209792" height="26.95707719896937" viewBox="0 0 232.209792 26.95707719896937"><g transform="matrix(1,0,0,1,0,0)"><svg data-palette-color="#233565" height="26.95707719896937" viewBox="4 -40.150001525878906 349.2699890136719 40.55000305175781" width="232.209792"><path id="text-1" data-fill-palette-color="secondary" class="slogan-text-1" fill="#233565" transform="matrix(1,0,0,1,0,0)" opacity="1" d="M25.15-2.1L25.15-37.55Q25.15-39.95 28.1-39.95L28.1-39.95Q31.1-39.95 31.1-37.55L31.1-37.55 31.1-2.1Q31.1 0.3 28.1 0.3L28.1 0.3Q25.15 0.3 25.15-2.1L25.15-2.1ZM9.95-37.55L9.95-2.1Q9.95 0.3 6.95 0.3L6.95 0.3Q4 0.3 4-2.1L4-2.1 4-37.55Q4-39.95 6.95-39.95L6.95-39.95Q9.95-39.95 9.95-37.55L9.95-37.55ZM21.65-20.65L21.65-20.65Q21.65-18.9 20.45-17.7 19.25-16.5 17.5-16.5L17.5-16.5Q15.8-16.5 14.6-17.7 13.4-18.9 13.4-20.65L13.4-20.65Q13.4-22.4 14.6-23.6 15.8-24.8 17.5-24.8L17.5-24.8Q19.25-24.8 20.45-23.6 21.65-22.4 21.65-20.65ZM62-28L62-7.95Q62-5.95 61.3-4.4 60.6-2.85 59.3-1.9L59.3-1.9 59.35-1.9Q58.1-1.05 56.7-0.53 55.3 0 54 0L54 0 45.95 0Q44.7 0 43.27-0.53 41.85-1.05 40.6-1.9L40.6-1.9 40.65-1.9Q39.35-2.85 38.65-4.4 37.95-5.95 37.95-7.95L37.95-7.95 37.95-28Q37.95-30.4 40.7-30.4L40.7-30.4Q43.45-30.4 43.45-28L43.45-28 43.45-8.35Q43.45-6.95 44.15-5.9L44.15-5.9Q44.8-4.7 46.85-4.7L46.85-4.7 53.1-4.7Q55.1-4.7 55.75-5.9L55.75-5.9 55.7-5.85Q56.5-7.05 56.5-8.35L56.5-8.35 56.5-28Q56.5-30.4 59.25-30.4L59.25-30.4Q62-30.4 62-28L62-28ZM73.75-25.4L73.7-2.1Q73.7-0.9 72.85-0.3 72 0.3 71 0.3L71 0.3Q68.25 0.3 68.25-2.1L68.25-2.1 68.25-37.6Q68.25-40 71-40L71-40Q73.75-40 73.75-37.6L73.75-37.6 73.75-30.1 84.3-30.1Q86.85-30.1 89.6-28.2L89.6-28.2Q92.3-26.3 92.3-22.2L92.3-22.2 92.3-7.3Q92.3-3.15 89.85-1.6L89.85-1.6Q87.4 0 84.25 0L84.25 0 78.35 0Q76.55 0 76.45-2.35L76.45-2.35Q76.45-4.7 78.35-4.7L78.35-4.7 83.35-4.7Q85.2-4.7 86-5.38 86.8-6.05 86.8-7.35L86.8-7.35 86.8-21.75Q86.8-23.05 86-24.25L86-24.25 86.05-24.2Q85.4-25.4 83.4-25.4L83.4-25.4 73.75-25.4ZM121.89-39.7L132.79-39.7Q134.09-39.7 135.49-39.15 136.89-38.6 138.19-37.75L138.19-37.75 138.14-37.75Q139.44-36.8 140.14-35.27 140.84-33.75 140.84-31.75L140.84-31.75 140.84-8Q140.84-3.95 138.14-1.95L138.14-1.95Q136.84-1 135.47-0.48 134.09 0.05 132.79 0.05L132.79 0.05 121.89 0.05Q120.59 0.05 119.22-0.48 117.84-1 116.54-1.95L116.54-1.95Q115.24-2.95 114.54-4.42 113.84-5.9 113.84-8L113.84-8 113.84-31.75Q113.84-33.75 114.54-35.27 115.24-36.8 116.54-37.75L116.54-37.75 116.49-37.75Q117.79-38.6 119.19-39.15 120.59-39.7 121.89-39.7L121.89-39.7ZM123.14-5L131.54-5Q133.39-5 134.14-6.05 134.89-7.1 134.89-8.4L134.89-8.4 134.89-31.3Q134.89-32.55 134.14-33.6 133.39-34.65 131.54-34.65L131.54-34.65 123.14-34.65Q121.29-34.65 120.54-33.6 119.79-32.55 119.79-31.3L119.79-31.3 119.79-8.4Q119.79-7.1 120.54-6.05 121.29-5 123.14-5L123.14-5ZM154.89-25.4L154.89-2.1Q154.89 0.3 152.09 0.3L152.09 0.3Q149.34 0.3 149.34-2.1L149.34-2.1 149.34-25.4 146.94-25.4Q145.14-25.4 145.04-27.75L145.04-27.75Q145.04-30.1 146.94-30.1L146.94-30.1 149.34-30.1 149.34-32.5Q149.34-34.55 149.91-35.98 150.49-37.4 151.79-38.15L151.79-38.15 151.79-38.1Q153.09-38.9 154.46-39.35 155.84-39.8 157.39-39.8L157.39-39.8 158.59-39.8Q160.44-39.8 160.44-37.45L160.44-37.45Q160.54-35.1 158.59-35.1L158.59-35.1 157.79-35.1Q156.84-35.1 156.26-34.93 155.69-34.75 155.39-34.4 155.09-34.05 154.99-33.55 154.89-33.05 154.89-32.45L154.89-32.45 154.89-30.1 158.64-30.1Q160.59-30.1 160.49-27.75L160.49-27.75Q160.49-25.4 158.64-25.4L158.64-25.4 154.89-25.4ZM193.53-34.65L193.53-2Q193.53 0.4 190.53 0.4L190.53 0.4Q187.58 0.4 187.58-2L187.58-2 187.58-34.65 178.83-34.65Q177.03-34.65 176.93-37.2L176.93-37.2Q176.93-39.7 178.83-39.7L178.83-39.7 202.28-39.7Q204.18-39.7 204.08-37.2L204.08-37.2Q204.08-34.65 202.28-34.65L202.28-34.65 193.53-34.65ZM222.18 0L215.63 0Q214.08 0 212.68-0.43 211.28-0.85 209.98-1.65L209.98-1.65 209.98-1.6Q207.53-3.15 207.53-7.3L207.53-7.3 207.53-9.75Q207.53-11.8 208.26-13.33 208.98-14.85 210.28-15.75L210.28-15.75 210.23-15.75Q211.48-16.6 212.88-17.03 214.28-17.45 215.58-17.45L215.58-17.45 226.63-17.45 226.63-22.1Q226.63-23.35 225.86-24.38 225.08-25.4 223.23-25.4L223.23-25.4 217.38-25.4Q215.48-25.4 214.76-24.48 214.03-23.55 214.03-22.3L214.03-22.3 214.03-21.9Q214.03-19.3 211.23-19.3L211.23-19.3Q208.43-19.3 208.43-21.9L208.43-21.9 208.43-22.35Q208.43-24.4 209.16-25.8 209.88-27.2 211.13-28.15L211.13-28.15 211.08-28.15Q212.38-29 213.81-29.55 215.23-30.1 216.53-30.1L216.53-30.1 224.13-30.1Q225.38-30.1 226.81-29.55 228.23-29 229.48-28.15L229.48-28.15 229.43-28.15Q230.73-27.2 231.43-25.68 232.13-24.15 232.13-22.15L232.13-22.15 232.13-2.1Q232.13 0.3 229.38 0.3L229.38 0.3Q228.83 0.3 228.36 0.25 227.88 0.2 227.51-0.03 227.13-0.25 226.91-0.68 226.68-1.1 226.68-1.8L226.68-1.8 226.63-12.75 216.53-12.75Q215.43-12.75 214.83-12.5 214.23-12.25 213.88-11.7L213.88-11.7Q213.48-10.85 213.31-10.38 213.13-9.9 213.13-9.3L213.13-9.3 213.13-7.35Q213.13-6.05 213.91-5.38 214.68-4.7 216.58-4.7L216.58-4.7 222.18-4.7Q224.03-4.7 224.03-2.35L224.03-2.35Q224.03-1.35 223.58-0.68 223.13 0 222.18 0L222.18 0ZM244.28-37.8L244.28-1.95Q244.28 0.4 241.53 0.4L241.53 0.4Q238.73 0.4 238.73-1.95L238.73-1.95 238.73-37.8Q238.73-40.15 241.53-40.15L241.53-40.15Q244.28-40.15 244.28-37.8L244.28-37.8ZM256.68-22.15L256.68-8Q256.68-6.8 257.45-5.75 258.23-4.7 260.08-4.7L260.08-4.7 266.33-4.7Q268.18-4.7 268.95-5.63 269.73-6.55 269.73-7.75L269.73-7.75 269.73-8.3Q269.73-10.65 272.48-10.65L272.48-10.65Q275.23-10.65 275.23-8.3L275.23-8.3 275.23-7.7Q275.23-5.6 274.55-4.25 273.88-2.9 272.53-1.9L272.53-1.9Q269.88 0 267.23 0L267.23 0 258.83 0Q256.18 0 253.68-1.9L253.68-1.9Q252.48-2.9 251.83-4.42 251.18-5.95 251.18-7.95L251.18-7.95 251.18-22.2Q251.18-26.25 253.68-28.2L253.68-28.2Q254.93-29.1 256.25-29.63 257.58-30.15 258.83-30.15L258.83-30.15 267.23-30.15Q268.43-30.15 269.88-29.68 271.33-29.2 272.58-28.4L272.58-28.4Q273.78-27.55 274.5-26.05 275.23-24.55 275.23-22.5L275.23-22.5 275.23-15.75Q275.23-14.6 274.55-13.7 273.88-12.8 272.08-12.8L272.08-12.8 261.28-12.8Q259.48-12.8 259.38-15.15L259.38-15.15Q259.38-17.5 261.28-17.5L261.28-17.5 269.78-17.5 269.73-22.15Q269.73-23.4 268.95-24.43 268.18-25.45 266.33-25.45L266.33-25.45 260.08-25.45Q258.23-25.45 257.45-24.43 256.68-23.4 256.68-22.15L256.68-22.15ZM287.07-21.75L287.07-2.1Q287.07 0.3 284.32 0.3L284.32 0.3Q281.57 0.3 281.57-2.1L281.57-2.1 281.57-22.2Q281.57-24.25 282.22-25.75 282.87-27.25 284.27-28.2L284.27-28.2Q286.92-30.1 289.57-30.1L289.57-30.1 297.62-30.1Q300.17-30.1 302.92-28.2L302.92-28.2Q305.62-26.3 305.62-22.2L305.62-22.2 305.62-2.1Q305.62 0.3 302.87 0.3L302.87 0.3Q300.12 0.3 300.12-2.1L300.12-2.1 300.12-21.75Q300.12-23.05 299.32-24.25L299.32-24.25 299.37-24.2Q298.72-25.4 296.72-25.4L296.72-25.4 290.47-25.4Q288.42-25.4 287.77-24.2L287.77-24.2Q287.07-23.15 287.07-21.75L287.07-21.75ZM322.77-25.4L318.62-25.4 318.62-7.2Q318.62-5.9 319.17-5.2 319.72-4.5 321.52-4.5L321.52-4.5 322.82-4.5Q324.77-4.5 324.67-2.2L324.67-2.2Q324.67 0.15 322.82 0.15L322.82 0.15 321.17 0.15Q319.57 0.15 318.17-0.28 316.77-0.7 315.47-1.5L315.47-1.5 315.47-1.45Q313.02-3.05 313.02-7.15L313.02-7.15 313.02-25.4 311.07-25.4Q309.27-25.4 309.17-27.75L309.17-27.75Q309.17-30.1 311.07-30.1L311.07-30.1 313.02-30.1 313.02-35.45Q313.02-37.85 315.87-37.85L315.87-37.85Q318.62-37.85 318.62-35.45L318.62-35.45 318.62-30.1 322.77-30.1Q324.72-30.1 324.62-27.75L324.62-27.75Q324.62-25.4 322.77-25.4L322.77-25.4ZM337.92-17.5L345.27-17.5Q346.52-17.5 347.94-16.93 349.37-16.35 350.62-15.5L350.62-15.5 350.57-15.5Q351.87-14.55 352.57-13.05 353.27-11.55 353.27-9.45L353.27-9.45 353.27-7.95Q353.27-3.85 350.57-1.9L350.57-1.9Q349.27-0.9 347.92-0.45 346.57 0 345.27 0L345.27 0 336.77 0Q335.47 0 334.12-0.45 332.77-0.9 331.47-1.9L331.47-1.9Q328.77-3.8 328.77-7.95L328.77-7.95 328.77-8.55Q328.77-10.7 331.52-10.65L331.52-10.65Q334.32-10.65 334.32-8.55L334.32-8.55 334.32-8Q334.32-6.8 335.07-5.75 335.82-4.7 337.72-4.7L337.72-4.7 344.32-4.7Q346.22-4.7 346.97-5.75 347.72-6.8 347.72-8L347.72-8 347.72-9.4Q347.72-10.05 347.54-10.65 347.37-11.25 346.97-11.73 346.57-12.2 345.92-12.5 345.27-12.8 344.32-12.8L344.32-12.8 337.02-12.8Q334.47-12.8 331.67-14.6L331.67-14.6Q329.02-16.3 329.02-20.45L329.02-20.45 329.02-22.15Q329.02-24.15 329.72-25.68 330.42-27.2 331.72-28.15L331.72-28.15 331.67-28.15Q332.92-29 334.32-29.55 335.72-30.1 337.02-30.1L337.02-30.1 345.02-30.1Q346.32-30.1 347.69-29.55 349.07-29 350.37-28.15L350.37-28.15 350.32-28.15Q351.62-27.2 352.32-25.68 353.02-24.15 353.02-22.15L353.02-22.15 353.02-21.7Q353.02-20.65 352.32-20.18 351.62-19.7 350.27-19.65L350.27-19.65Q347.52-19.6 347.52-21.7L347.52-21.7 347.52-22.1Q347.52-23.35 346.74-24.38 345.97-25.4 344.12-25.4L344.12-25.4 337.92-25.4Q336.07-25.4 335.29-24.38 334.52-23.35 334.52-22.1L334.52-22.1 334.52-20.9Q334.52-19.6 335.29-18.55 336.07-17.5 337.92-17.5L337.92-17.5Z"/></svg></g></svg></g></svg></g></svg></g><g transform="matrix(1,0,0,1,0,0.497146037394117)"><svg width="207.3269768584679" height="198.85841495764967" viewBox="0 0 207.3269768584679 198.85841495764967"><g><svg id="icon-0" data-fill-palette-color="accent" class="icon-icon-0" width="207.3269768584679" height="198.85841495764967" xml:space="preserve" viewBox="62.608001708984375 5.754000663757324 139.33639526367188 133.64500427246094" y="0" x="0" version="1.1" xmlns:xlink="http://www.w3.org/1999/xlink" xmlns="http://www.w3.org/2000/svg"><g data-fill-palette-color="accent" fill="#8bd8bc"><line data-fill-palette-color="accent" y2="71.301" x2="139.263" y1="71.301" x1="65.608" fill="#8bd8bc"/><path data-fill-palette-color="accent" d="M139.263 74.301H65.608c-1.657 0-3-1.343-3-3s1.343-3 3-3h73.655c1.657 0 3 1.343 3 3S140.92 74.301 139.263 74.301z" fill="#8bd8bc"/></g><path data-fill-palette-color="accent" d="M131.417 137.798c-0.281 0-0.566-0.04-0.85-0.123-1.589-0.469-2.498-2.137-2.029-3.726l14.981-50.83c0.329-1.115 1.272-1.94 2.421-2.117l24.603-3.793c-1.255-14.899-6.342-27.775-9.461-34.478-13.573 20.33-44.249 16.283-45.648 16.086-1.641-0.231-2.783-1.749-2.552-3.389 0.231-1.64 1.748-2.781 3.388-2.552 0.405 0.054 32.563 4.221 42.163-17.779 0.452-1.035 1.447-1.729 2.575-1.795 1.123-0.063 2.197 0.507 2.767 1.484 0.477 0.817 11.688 20.303 12.943 44.814 0.079 1.537-1.019 2.884-2.539 3.118l-25.442 3.923-14.443 49.003C133.908 136.951 132.713 137.798 131.417 137.798z" fill="#8bd8bc"/><path data-fill-palette-color="accent" d="M109.757 65.064H84.055l-9.173-27.828c-0.519-1.573 0.336-3.27 1.91-3.788 1.572-0.52 3.269 0.336 3.788 1.91l7.814 23.706h21.362c1.657 0 3 1.343 3 3S111.414 65.064 109.757 65.064z" fill="#8bd8bc"/><path data-fill-palette-color="accent" d="M149.779 29.353c-6.507 0-11.801-5.293-11.801-11.799 0-6.507 5.294-11.8 11.801-11.8 6.508 0 11.802 5.293 11.802 11.8C161.581 24.06 156.287 29.353 149.779 29.353zM149.779 11.754c-3.198 0-5.801 2.602-5.801 5.8 0 3.197 2.603 5.799 5.801 5.799 3.199 0 5.802-2.602 5.802-5.799C155.581 14.356 152.978 11.754 149.779 11.754z" fill="#8bd8bc"/><path data-fill-palette-color="accent" d="M105.754 136.935c-1.657 0-3-1.343-3-3V71.301c0-1.657 1.343-3 3-3s3 1.343 3 3v62.634C108.754 135.593 107.411 136.935 105.754 136.935z" fill="#8bd8bc"/><path data-fill-palette-color="accent" d="M119.865 136.935L119.865 136.935l-43.45-0.001c-1.657 0-3-1.343-3-3s1.343-3 3-3l0 0 43.45 0.001c1.657 0 3 1.343 3 3S121.522 136.935 119.865 136.935z" fill="#8bd8bc"/><path data-fill-palette-color="accent" d="M182.862 96.225h-29.581c-1.657 0-3-1.343-3-3s1.343-3 3-3h27.236l15.515-62.349c0.4-1.606 2.023-2.59 3.636-2.187 1.607 0.4 2.587 2.028 2.187 3.636L185.773 93.95C185.44 95.287 184.24 96.225 182.862 96.225z" fill="#8bd8bc"/><path data-fill-palette-color="accent" d="M153.281 139.399c-0.749 0-1.499-0.278-2.081-0.839-1.193-1.149-1.229-3.048-0.08-4.242l13.001-13.503v-27.59c0-1.657 1.343-3 3-3s3 1.343 3 3v28.799c0 0.776-0.301 1.521-0.839 2.081l-13.84 14.375C154.853 139.092 154.067 139.399 153.281 139.399z" fill="#8bd8bc"/><path data-fill-palette-color="accent" d="M180.958 139.399c-0.787 0-1.572-0.308-2.161-0.92l-13.838-14.375c-1.149-1.193-1.113-3.093 0.081-4.241 1.191-1.149 3.092-1.114 4.241 0.081l13.838 14.375c1.149 1.193 1.113 3.093-0.081 4.241C182.458 139.121 181.708 139.399 180.958 139.399z" fill="#8bd8bc"/></svg></g></svg></g></svg></g><defs/></svg><rect visibility="hidden" stroke="none" fill="none" height="122.9147871071145" width="395.52"/></g></svg></g></svg>